#!OML:ASF E:/inclinewalkrobotboard/Project1/Captureday1/Session1/subject1.ASF
:FULLY-SPECIFIED
:DEGREES
38
root 0 0 0 -0.47979171878083304 -3.0256842815688496 -0.16424062124434335
lowerback 11.227699596713421 0.6397291321134774 0.39288320133419463
upperback -1.978752670621252 0.931727791036382 0.4801393131638051
thorax -8.421825831670684 0.43348001236954237 0.09428418019864154
lowerneck -11.335487203863693 -0.5979460604260571 1.3971369400202458
upperneck 18.854108824939093 -0.2020202731274967 -3.964668825866541
head 7.808313608220552 -0.2933575036870818 -1.5942268192516076
rclavicle -5.439816201285726E-16 -6.244985718522481E-16
rhumerus -0.18466062781949866 1.134243692683233 -60.00906640477292
rradius 53.65176079195813
rwrist 17.60881092084525
rhand -27.355300705828096 -23.975543729526542
rfingers 7.1250199999999255
rthumb -0.9412730987639764 -54.106281581344504
lclavicle -4.882893589704319E-16 -6.951501357076015E-16
lhumerus -1.064605370958569 -6.979566956125906 60.324557979176056
lradius 52.81565040983053
lwrist -11.25322911999788
lhand -37.34739915544857 -31.62423366283243
lfingers 7.125019999999921
lthumb -10.44651878083117 -2.0742116934147035
rfemur -21.38581391639564 -0.34430070491773046 19.541440236886874
rtibia 50.62134653443376
rfoot -22.777900011427285 -13.85718050081265
rtoes -12.235910014745055
lfemur -23.164035395294167 1.5558590125016611 -18.1381859846022
ltibia 50.16611440590496
lfoot -26.00595757226781 -3.6545137067798685
ltoes -16.751431354374535
39
root 0 0 0 -0.48141345194227103 -3.0250732124913693 -0.16581433919151367
lowerback 11.227063441543606 0.6394081029116062 0.39314598844152615
upperback -1.9766223175577018 0.9314462772722034 0.48110735095885465
thorax -8.419166797218377 0.4333883541117946 0.09522716812752224
lowerneck -11.339946190635432 -0.5997471556303998 1.3943965159305114
upperneck 18.85439403434139 -0.20483110239234126 -3.961043256205121
head 7.809169845800697 -0.2946065084133802 -1.5928773344749185
rclavicle -5.443576563070805E-16 -6.241285090120135E-16
rhumerus -0.20727421099689636 1.1192375507539243 -60.02254811510968
rradius 53.63100090717434
rwrist 17.598497054389384
rhand -27.347756267133953 -23.939558507475084
rfingers 7.1250199999999255
rthumb -0.9342295924336064 -54.07089475751344
lclavicle -4.881889178488287E-16 -6.950538388998114E-16
lhumerus -1.065555902913223 -6.979413332541799 60.32542342199716
lradius 52.81487961251342
lwrist -11.25262959439239
lhand -37.346999215911175 -31.62228861403851
lfingers 7.125019999999921
lthumb -10.446176270371659 -2.0723117749252644
rfemur -21.394278316691025 -0.349311975312832 19.53466603029482
rtibia 50.6321887598972
rfoot -22.79278895409646 -13.864444676812123
rtoes -12.251550771127441
lfemur -23.16120521473935 1.555202653915092 -18.13859036316349
ltibia 50.16286228208188
lfoot -26.00222572033764 -3.654403823707752
ltoes -16.74910547004445
40
root 0 0 0 -0.48352308083512274 -3.024315566956284 -0.16787653239784417
lowerback 11.226236727365208 0.639014975172478 0.39350872505268847
upperback -1.973866241489345 0.9311080921264389 0.48235864128750033
thorax -8.41568989633335 0.4332769222749424 0.09642256412825057
lowerneck -11.345756713133314 -0.6021221240027015 1.3908217503686902
upperneck 18.854783358634915 -0.20850207844198776 -3.956307887302386
head 7.810286313624589 -0.29622648460320666 -1.591116384203875
rclavicle -5.446401773229725E-16 -6.237614243802654E-16
rhumerus -0.2359939474155066 1.1002491775426222 -60.03966933193865
rradius 53.6046997698791
rwrist 17.585403516762497
rhand -27.338196759325825 -23.893836728658826
rfingers 7.1250199999999255
rthumb -0.9253144118293797 -54.025733223684284
lclavicle -4.881850201095375E-16 -6.949643575258105E-16
lhumerus -1.071842970065081 -6.9780121291969275 60.33003644823126
lradius 52.8100881553059
lwrist -11.249246355490488
lhand -37.34485061929445 -31.611161726223678
lfingers 7.125019999999921
lthumb -10.444137060804227 -2.061000236518449
rfemur -21.400825039297736 -0.35307337172174735 19.529491475878658
rtibia 50.64019435336445
rfoot -22.804003171762908 -13.86995833494263
rtoes -12.263430485011572
lfemur -23.154427620738417 1.5535980434952874 -18.139364474513453
ltibia 50.15504794431144
lfoot -25.993012471382997 -3.6541223928110957
ltoes -16.74319238324764
41
root 0 0 0 -0.4857552509346553 -3.0235505761132684 -0.1700991792875245
lowerback 11.22536355582809 0.6386207394231754 0.3939251264507483
upperback -1.970954931857488 0.9307773932779412 0.48367986282084807
thorax -8.412018415844658 0.4331643280912034 0.09766359703889549
lowerneck -11.35191369555898 -0.6046520244548256 1.3870471490143714
upperneck 18.855203263833925 -0.2123964127978184 -3.951286331117069
head 7.811470143558537 -0.2979426570160315 -1.5892510299547986
rclavicle -5.449904138080235E-16 -6.234110582998316E-16
rhumerus -0.2625025515961479 1.0827216890073963 -60.0554707491858
rradius 53.58038591012083
rwrist 17.573308446706356
rhand -27.329373100371804 -23.85164782433789
rfingers 7.1250199999999255
rthumb -0.9170783196572208 -53.984068730790185
lclavicle -4.881656582755166E-16 -6.948579845423053E-16
lhumerus -1.0792430312817665 -6.976321698326089 60.33540668697542
lradius 52.80438882613043
lwrist -11.245296483845461
lhand -37.34232800370639 -31.598030906391337
lfingers 7.125019999999921
lthumb -10.441734292804002 -2.0477146181910193
rfemur -21.40581457123566 -0.3559301127925636 19.52555344654322
rtibia 50.646274723929636
rfoot -22.812513699935224 -13.87414448889544
rtoes -12.272437627472616
lfemur -23.148309626905945 1.552144215812991 -18.140048449652827
ltibia 50.14796646314972
lfoot -25.98463503223627 -3.6538854556619826
ltoes -16.737822409262254
